<svg id="Layer_1" data-name="Layer 1" xmlns="http://www.w3.org/2000/svg" viewBox="0 0 300 99.51"><defs><style>.cls-1,.cls-8{fill:#fff;}.cls-2{fill:#f2f2f2;}.cls-3{fill:gray;}.cls-12,.cls-4,.cls-6,.cls-8{isolation:isolate;}.cls-4,.cls-6,.cls-8{font-size:5.11px;}.cls-12,.cls-13,.cls-4,.cls-6,.cls-8{font-family:Roboto;}.cls-14,.cls-4,.cls-8{font-weight:700;}.cls-5{fill:none;}.cls-7{fill:#2f8942;}.cls-9{fill:#f1f0f0;}.cls-10{fill:#cac8ba;}.cls-11{fill:#fefdec;}.cls-12{font-size:4.47px;fill:#010101;font-style:italic;}.cls-13{font-size:5px;}.cls-15{white-space:pre;}</style></defs><title>tour-portfolio-snapshot</title><path class="cls-1" d="M0,0H300V88.72H0V0Z"/><path class="cls-2" d="M0,0H300V12.77H0V0Z"/><polygon class="cls-3" points="300 13.08 0 13.08 0 12.45 300 12.45 300 13.08"/><text class="cls-4" transform="translate(3.1 8.29)">Contract Details</text><text class="cls-4" transform="translate(198.02 8.29)">Purchase</text><text class="cls-4" transform="translate(234.11 8.29)">Latest</text><path class="cls-5" d="M3.1,20h187V34H3.1V20Z"/><path class="cls-5" d="M198,20h22.24V34H198V20Z"/><text class="cls-6" transform="translate(198.02 23.4)">USD</text><text class="cls-4" transform="translate(209.48 23.4)">5.14</text><path class="cls-5" d="M234.11,20h22.23V34H234.11V20Z"/><text class="cls-6" transform="translate(234.11 23.4)">USD 6.06</text><path class="cls-7" d="M271.8,18.82h20.75a1.08,1.08,0,0,1,.63,1.21V29.1a1.07,1.07,0,0,1-.63,1.21H271.79a1.07,1.07,0,0,1-.63-1.21V20a1.07,1.07,0,0,1,.63-1.21"/><text class="cls-8" transform="translate(275.91 26.18)">VIEW</text><path class="cls-9" d="M0,37H300v1H0V37Z"/><path class="cls-5" d="M3.1,44.78h187v14H3.1v-14Z"/><path class="cls-5" d="M198,44.78h22.24v14H198v-14Z"/><text class="cls-6" transform="translate(198.02 48.18)">USD</text><text class="cls-4" transform="translate(209.48 48.18)">5.14</text><path class="cls-5" d="M234.11,44.78h22.23v14H234.11v-14Z"/><text class="cls-6" transform="translate(234.11 48.18)">USD 6.68</text><path class="cls-7" d="M271.8,43.6h20.75a1.08,1.08,0,0,1,.63,1.21v9.07a1.07,1.07,0,0,1-.63,1.21H271.79a1.07,1.07,0,0,1-.63-1.21V44.82a1.07,1.07,0,0,1,.63-1.21"/><text class="cls-8" transform="translate(275.91 50.97)">VIEW</text><path class="cls-9" d="M0,61.8H300v1H0v-1Z"/><path class="cls-5" d="M3.1,69.62h187v14H3.1v-14Z"/><path class="cls-5" d="M198,69.62h22.24v14H198v-14Z"/><text class="cls-6" transform="translate(198.02 73.03)">USD</text><text class="cls-4" transform="translate(209.48 73.03)">5.16</text><path class="cls-5" d="M234.11,69.62h22.23v14H234.11v-14Z"/><text class="cls-6" transform="translate(234.11 73.03)">USD 4.20</text><path class="cls-7" d="M271.8,68.45h20.75a1.07,1.07,0,0,1,.63,1.21v9.07a1.07,1.07,0,0,1-.63,1.2H271.79a1.07,1.07,0,0,1-.63-1.2V69.66a1.07,1.07,0,0,1,.63-1.21"/><text class="cls-8" transform="translate(275.91 75.82)">VIEW</text><path class="cls-9" d="M0,86.64H300v1H0v-1Z"/><rect class="cls-10" x="244.18" y="75.36" width="0.41" height="14.91"/><path class="cls-11" d="M215.71,88.18h59.51V99.35H215.71V88.18Z"/><path class="cls-10" d="M275.06,88.34V99.19H215.87V88.34h59.19m0.32-.32H215.55V99.51h59.83V88Z"/><text class="cls-12" transform="translate(221.54 94.86)">Cur<tspan x="6.52" y="0">r</tspan><tspan x="7.96" y="0">ent price of the trade</tspan></text><text class="cls-13" transform="translate(3.1 22.7)">USD <tspan class="cls-14" x="11.04" y="0">10 </tspan><tspan x="18.02" y="0">p</tspan><tspan x="20.86" y="0">ay</tspan><tspan x="26.05" y="0">out if </tspan><tspan x="38.94" y="0">V</tspan><tspan x="41.98" y="0">olatility 100 Index is strictly </tspan><tspan class="cls-14" x="104.85" y="0">higher</tspan><tspan class="cls-15" x="119.05" y="0"> than </tspan><tspan class="cls-14" x="131.7" y="0">18102.80</tspan><tspan class="cls-15" x="153.23" y="0"> at </tspan><tspan x="0" y="6">10:06:29 on 24-Mar-14</tspan></text><text class="cls-13" transform="translate(3.1 47.9)">USD <tspan class="cls-14" x="11.04" y="0">10 </tspan><tspan x="18.02" y="0">p</tspan><tspan x="20.86" y="0">ay</tspan><tspan x="26.05" y="0">out if </tspan><tspan x="38.94" y="0">V</tspan><tspan x="41.98" y="0">olatility 100 Index is strictly </tspan><tspan class="cls-14" x="104.85" y="0">higher</tspan><tspan class="cls-15" x="119.05" y="0"> than </tspan><tspan class="cls-14" x="131.7" y="0">18093.35</tspan><tspan class="cls-15" x="153.23" y="0"> at </tspan><tspan x="0" y="6">10:06:40 on 24-Mar-14</tspan></text><text class="cls-13" transform="translate(3.1 72.51)">USD <tspan class="cls-14" x="11.04" y="0">10 </tspan><tspan x="18.02" y="0">p</tspan><tspan x="20.86" y="0">ay</tspan><tspan x="26.05" y="0">out if </tspan><tspan x="38.94" y="0">V</tspan><tspan x="41.98" y="0">olatility 100 Index is strictly </tspan><tspan class="cls-14" x="104.85" y="0">lower</tspan><tspan class="cls-15" x="117.09" y="0"> than </tspan><tspan class="cls-14" x="129.73" y="0">18108.46</tspan><tspan class="cls-15" x="151.27" y="0"> at </tspan><tspan x="0" y="6">10:06:22 on 24-Mar-14</tspan></text></svg>