<svg id="Layer_1" data-name="Layer 1" xmlns="http://www.w3.org/2000/svg" viewBox="0 0 400 230"><defs><style>.cls-1,.cls-12,.cls-14,.cls-5,.cls-6{fill:#fff;}.cls-1,.cls-12,.cls-14,.cls-16,.cls-7,.cls-9{stroke:#dedede;}.cls-1,.cls-12,.cls-14,.cls-15,.cls-16,.cls-17,.cls-21,.cls-22,.cls-23,.cls-7,.cls-9{stroke-miterlimit:10;}.cls-1,.cls-16{stroke-width:0.51px;}.cls-2{fill:#f2f2f2;}.cls-24,.cls-3,.cls-5{font-size:7.17px;}.cls-10,.cls-11,.cls-13,.cls-24,.cls-3,.cls-5,.cls-8{font-family:Roboto;}.cls-4{fill:#2a3052;}.cls-15,.cls-16,.cls-17,.cls-21,.cls-22,.cls-7,.cls-9{fill:none;}.cls-7{stroke-width:0.56px;}.cls-8{font-size:9.22px;}.cls-9{stroke-width:0.38px;}.cls-10,.cls-11{font-size:6.15px;}.cls-10{fill:#e98024;}.cls-11,.cls-24{fill:#231f20;}.cls-12,.cls-23{stroke-width:0.51px;}.cls-13{font-size:8.19px;}.cls-14{stroke-width:0.42px;}.cls-15,.cls-17{stroke:#000;}.cls-15{stroke-dasharray:1 1;}.cls-18{fill:#0000f0;}.cls-19{fill:#f00000;}.cls-20{fill:#00f000;}.cls-21,.cls-22{stroke:#e98024;}.cls-22{stroke-width:1.02px;}.cls-23{fill:#fefdec;stroke:#cac8ba;}.cls-24{font-style:italic;}</style></defs><title>trade_guide</title><rect class="cls-1" x="95.65" y="72.74" width="241.74" height="146.48"/><path class="cls-2" d="M98.07,59.42h28.64a2,2,0,0,1,2,2V72.74a0,0,0,0,1,0,0H96a0,0,0,0,1,0,0V61.47A2,2,0,0,1,98.07,59.42Z"/><text class="cls-3" transform="translate(98.59 68.35)">Up/Down</text><path class="cls-2" d="M133.88,59.42h53.56a2,2,0,0,1,2,2V72.74a0,0,0,0,1,0,0H131.83a0,0,0,0,1,0,0V61.47A2,2,0,0,1,133.88,59.42Z"/><text class="cls-3" transform="translate(134.39 68.35)">T<tspan x="3.92" y="0">ouch/No </tspan><tspan x="33.9" y="0">T</tspan><tspan x="37.83" y="0">ouch</tspan></text><path class="cls-4" d="M194.1,59.42h20.4a2,2,0,0,1,2,2V72.74a0,0,0,0,1,0,0h-24.5a0,0,0,0,1,0,0V61.47A2,2,0,0,1,194.1,59.42Z"/><text class="cls-5" transform="translate(194.62 68.35)">In/Out</text><rect class="cls-6" x="95.65" y="36.9" width="80.92" height="14.34" rx="2.86" ry="2.86"/><rect class="cls-7" x="95.65" y="36.9" width="80.92" height="14.34" rx="2.86" ry="2.86"/><text class="cls-8" transform="translate(101.34 47.23)">F<tspan x="5.28" y="0">o</tspan><tspan x="10.52" y="0">r</tspan><tspan x="13.59" y="0">ex</tspan></text><polygon points="172.92 43.53 170.88 40.01 168.84 43.53 172.92 43.53"/><polygon points="172.92 44.62 170.88 48.14 168.84 44.62 172.92 44.62"/><rect class="cls-6" x="186.36" y="36.9" width="55.82" height="14.34" rx="1.93" ry="1.93"/><rect class="cls-9" x="186.36" y="36.9" width="55.82" height="14.34" rx="1.93" ry="1.93"/><text class="cls-8" transform="translate(190.64 47.23)">AUD/JPY</text><polygon points="238.54 43.53 236.5 40.01 234.46 43.53 238.54 43.53"/><polygon points="238.54 44.62 236.5 48.14 234.46 44.62 238.54 44.62"/><text class="cls-8" transform="translate(252.25 46.86)">80.411</text><text class="cls-10" transform="translate(103.89 83.29)">Ends In/Out</text><text class="cls-11" transform="translate(156.34 83.29)">St<tspan x="5.96" y="0">a</tspan><tspan x="9.29" y="0">ys In/Goes Out</tspan></text><rect class="cls-12" x="128.09" y="107.82" width="52.24" height="14.34" rx="2.56" ry="2.56"/><text class="cls-13" transform="translate(131.52 117.38)">Duration</text><polygon points="176.64 114.06 175.04 111.3 173.44 114.06 176.64 114.06"/><polygon points="176.64 115.92 175.04 118.68 173.44 115.92 176.64 115.92"/><rect class="cls-12" x="228.07" y="107.82" width="51.22" height="14.34" rx="2.56" ry="2.56"/><text class="cls-13" transform="translate(230.99 117.38)">d<tspan x="4.66" y="0">a</tspan><tspan x="9.1" y="0">ys</tspan></text><polygon points="275.6 114.06 274 111.3 272.4 114.06 275.6 114.06"/><polygon points="275.6 115.92 274 118.68 272.4 115.92 275.6 115.92"/><rect class="cls-12" x="189.66" y="107.82" width="35.85" height="14.34" rx="2.56" ry="2.56"/><text class="cls-13" transform="translate(193.26 117.38)">7</text><rect class="cls-12" x="136.8" y="180.03" width="43.53" height="14.34" rx="2.56" ry="2.56"/><text class="cls-13" transform="translate(140.43 189.6)">P<tspan x="5.21" y="0">ay</tspan><tspan x="13.71" y="0">out</tspan></text><polygon points="176.64 186.27 175.04 183.51 173.44 186.27 176.64 186.27"/><polygon points="176.64 188.13 175.04 190.89 173.44 188.13 176.64 188.13"/><rect class="cls-12" x="228.07" y="180.03" width="51.22" height="14.34" rx="2.56" ry="2.56"/><text class="cls-13" transform="translate(230.99 189.6)">10</text><rect class="cls-14" x="189.66" y="180.03" width="35.85" height="14.34" rx="2.56" ry="2.56"/><text class="cls-13" transform="translate(193.26 189.6)">USD</text><rect class="cls-12" x="189.66" y="132.4" width="89.63" height="14.34" rx="2.56" ry="2.56"/><text class="cls-13" transform="translate(193.26 141.97)">80.818</text><text class="cls-13" transform="translate(137.08 141.97)">High barrier</text><rect class="cls-12" x="189.66" y="156.17" width="89.63" height="14.34" rx="2.56" ry="2.56"/><text class="cls-13" transform="translate(193.26 165.74)">80.068</text><text class="cls-13" transform="translate(139.02 165.74)">Low barrier</text><polygon points="221.55 186.27 219.95 183.51 218.35 186.27 221.55 186.27"/><polygon points="221.55 188.13 219.95 190.89 218.35 188.13 221.55 188.13"/><text class="cls-13" transform="translate(284.42 117.38)">min 1</text><line class="cls-15" x1="286" y1="119.5" x2="298" y2="119.5"/><rect class="cls-16" x="95.65" y="72.74" width="241.74" height="146.48"/><polyline class="cls-17" points="289.91 42.77 291.05 43.5 292.71 43.5 294.12 41.92 294.76 41.47 297.11 40.47 298.9 38.5 300.9 38.5 302.01 37.58 303.25 38.34 304.53 39.61 305.86 40.12 307.65 39.88 308.97 40.5 312.17 40.5 313.75 41.87 315.2 46.31 316.48 45.71 318.02 45.78"/><circle class="cls-18" cx="301.65" cy="37.9" r="0.73"/><circle class="cls-19" cx="315.05" cy="46.09" r="0.73"/><circle class="cls-20" cx="318.1" cy="45.6" r="0.73"/><line class="cls-21" x1="323" y1="115.5" x2="308" y2="115.5"/><polyline class="cls-22" points="309.76 117.29 307.47 115 309.76 112.71"/><line class="cls-21" x1="241" y1="65.5" x2="220" y2="65.5"/><polyline class="cls-22" points="222.1 68.13 219.8 65.83 222.1 63.54"/><rect class="cls-23" x="323.3" y="106.03" width="71.7" height="17.93"/><text class="cls-24" transform="translate(326.53 117.08)">Choose <tspan x="24.57" y="0">y</tspan><tspan x="27.92" y="0">our duration</tspan></text><rect class="cls-23" x="241.1" y="56.86" width="79.38" height="17.93"/><text class="cls-24" transform="translate(245.56 67.92)">Choose <tspan x="24.57" y="0">y</tspan><tspan x="27.92" y="0">our trade type</tspan></text><line class="cls-21" x1="214.5" y1="20" x2="214.5" y2="34"/><polyline class="cls-22" points="216.55 32.38 214.25 34.68 211.96 32.38"/><rect class="cls-23" x="174.6" y="4.37" width="79.38" height="17.93"/><text class="cls-24" transform="translate(178.45 15.43)">Choose <tspan x="24.57" y="0">y</tspan><tspan x="27.92" y="0">our underlying</tspan></text><line class="cls-21" x1="71" y1="44.5" x2="92" y2="44.5"/><polyline class="cls-22" points="90.67 42.03 92.96 44.32 90.67 46.62"/><rect class="cls-23" x="5" y="35.35" width="71.7" height="17.93"/><text class="cls-24" transform="translate(10.36 46.41)">Choose <tspan x="24.57" y="0">y</tspan><tspan x="27.92" y="0">our mar</tspan><tspan x="51.61" y="0">k</tspan><tspan x="55.01" y="0">et</tspan></text><polyline class="cls-21" points="134 139.5 120.5 139.5 120.5 163.5 134 163.5"/><polyline class="cls-22" points="132.66 137.29 134.96 139.58 132.66 141.88"/><polyline class="cls-22" points="132.66 160.85 134.96 163.14 132.66 165.44"/><line class="cls-21" x1="110" y1="151.5" x2="120" y2="151.5"/><rect class="cls-23" x="39.66" y="142.29" width="71.7" height="17.93"/><text class="cls-24" transform="translate(43.91 153.34)">Choose <tspan x="24.57" y="0">y</tspan><tspan x="27.92" y="0">our barriers</tspan></text><line class="cls-21" x1="157.5" y1="210" x2="157.5" y2="197"/><polyline class="cls-22" points="155.11 198.64 157.41 196.35 159.7 198.64"/><rect class="cls-23" x="121.59" y="207.7" width="71.7" height="17.93"/><text class="cls-24" transform="translate(127.15 218.76)">Choose <tspan x="24.57" y="0">y</tspan><tspan x="27.92" y="0">our p</tspan><tspan x="43.51" y="0">ay</tspan><tspan x="50.52" y="0">out</tspan></text></svg>