<?xml version="1.0" encoding="utf-8"?>
<!-- Generator: Adobe Illustrator 19.2.1, SVG Export Plug-In . SVG Version: 6.00 Build 0)  -->
<svg version="1.1" id="Layer_1" xmlns="http://www.w3.org/2000/svg" xmlns:xlink="http://www.w3.org/1999/xlink" x="0px" y="0px"
	 viewBox="0 0 940 500" style="enable-background:new 0 0 940 500;" xml:space="preserve">
<style type="text/css">
	.st0{fill:#FFFFFF;}
	.st1{fill:#E98025;}
	.st2{font-family:'ArialMT';}
	.st3{font-size:13px;}
	.st4{fill:#6F6F6F;}
	.st5{fill:#E2E2E2;}
	.st6{fill:#818181;}
	.st7{fill:#F3F3F3;}
	.st8{fill:#222C62;}
	.st9{fill:#010101;}
	.st10{fill:#E4E4E4;}
	.st11{font-size:18px;}
	.st12{fill:#676767;}
	.st13{fill:none;stroke:#010101;stroke-miterlimit:2;stroke-dasharray:1,1;stroke-dashoffset:1;}
	.st14{fill:#2AAAE2;}
	.st15{fill:#2F8942;}
	.st16{font-size:12px;}
	.st17{fill:none;stroke:#CAC8BA;}
	.st18{fill:#FEFDEC;}
	.st19{fill:#CAC8BA;}
	.st20{font-size:14px;}
</style>
<path class="st0" d="M213.8,90.6h520v368h-520V90.6z"/>
<text transform="matrix(1 0 0 1 214.811 39.565)" class="st1 st2 st3">Forex</text>
<text transform="matrix(1 0 0 1 271.811 39.565)" class="st4 st2 st3">Indices</text>
<text transform="matrix(1 0 0 1 336.811 39.565)" class="st4 st2 st3">Stocks</text>
<text transform="matrix(1 0 0 1 401.811 39.565)" class="st4 st2 st3">Commodities</text>
<text transform="matrix(1 0 0 1 501.81 39.565)" class="st4 st2 st3">Sectors</text>
<text transform="matrix(1 0 0 1 570.811 39.565)" class="st4 st2 st3">Volatility Indices</text>
<path class="st5" d="M213.8,458.6h520v1h-520V458.6"/>
<path class="st6" d="M213.8,457.6h520v1h-520V457.6 M213.8,196.6h1v262h-1V196.6 M732.8,196.6h1v262h-1V196.6 M213.8,90.6h520v1
	h-520V90.6 M213.8,90.6h1v343h-1V90.6 M732.8,90.6h1v343h-1V90.6 M213.8,90.6h520v1h-520V90.6"/>
<path class="st7" d="M217.8,64.6h53c2.2,0,4,1.8,4,4v22h-61v-22C213.8,66.4,215.6,64.6,217.8,64.6 M280.8,64.6h77c2.2,0,4,1.8,4,4
	v22h-85v-22C276.8,66.4,278.6,64.6,280.8,64.6 M367.8,64.6h94c2.2,0,4,1.8,4,4v22h-102v-22C363.8,66.4,365.6,64.6,367.8,64.6"/>
<path class="st8" d="M471.8,64.6h37c2.2,0,4,1.8,4,4v22h-45v-22C467.8,66.4,469.6,64.6,471.8,64.6"/>
<text transform="matrix(1 0 0 1 218.811 83.564)" class="st9 st2 st3">Rise/Fall</text>
<text transform="matrix(1 0 0 1 281.811 83.564)" class="st9 st2 st3">Higher/Lower</text>
<text transform="matrix(1 0 0 1 368.811 83.564)" class="st9 st2 st3">Touch/No Touch</text>
<text transform="matrix(1 0 0 1 472.81 83.564)" class="st0 st2 st3">In/Out</text>
<path class="st0" d="M297.8,127.6h121v28h-121V127.6"/>
<path class="st10" d="M297.8,127.6h121v1h-121V127.6 M297.8,154.6h121v1h-121V154.6 M297.8,127.6h1v28h-1V127.6 M417.8,127.6h1v28
	h-1V127.6"/>
<text transform="matrix(1 0 0 1 302.811 147.565)" class="st9 st2 st11">All</text>
<text transform="matrix(1 0 0 1 350.811 188.565)" class="st9 st2 st11">Duration:</text>
<text transform="matrix(1 0 0 1 381.811 230.565)" class="st12 st2 st11">Spot:</text>
<text transform="matrix(1 0 0 1 324.811 271.565)" class="st9 st2 st11">High barrier:</text>
<text transform="matrix(1 0 0 1 328.811 309.565)" class="st9 st2 st11">Low barrier:</text>
<text transform="matrix(1 0 0 1 362.811 347.565)" class="st9 st2 st11">Payout:</text>
<path class="st0" d="M441.8,127.6h163v28h-163V127.6"/>
<path class="st10" d="M441.8,127.6h163v1h-163V127.6 M441.8,154.6h163v1h-163V154.6 M441.8,127.6h1v28h-1V127.6 M603.8,127.6h1v28
	h-1V127.6"/>
<text transform="matrix(1 0 0 1 446.811 147.565)" class="st9 st2 st11">AUD/JPY</text>
<path class="st0" d="M441.8,170.6h82v28h-82V170.6"/>
<path class="st10" d="M441.8,170.6h82v1h-82V170.6 M441.8,197.6h82v1h-82V197.6 M441.8,170.6h1v28h-1V170.6 M522.8,170.6h1v28h-1
	V170.6"/>
<text transform="matrix(1 0 0 1 446.811 190.565)" class="st9 st2 st11">7</text>
<path class="st0" d="M533.8,170.6h68v28h-68V170.6"/>
<path class="st10" d="M533.8,170.6h68v1h-68V170.6 M533.8,197.6h68v1h-68V197.6 M533.8,170.6h1v28h-1V170.6 M600.8,170.6h1v28h-1
	V170.6"/>
<text transform="matrix(1 0 0 1 538.811 190.565)" class="st9 st2 st11">days</text>
<path class="st9" d="M611.8,190.6h1v1h-1V190.6 M638.8,190.6h1v1h-1V190.6"/>
<path class="st13" d="M612.8,191.1h26"/>
<text transform="matrix(1 0 0 1 611.811 186.565)" class="st12 st2 st11">min</text>
<text transform="matrix(1 0 0 1 639.811 186.565)" class="st12 st2 st11">: 1</text>
<path class="st14" d="M441.8,211.6h59v23h-59V211.6"/>
<text transform="matrix(1 0 0 1 443.811 229.565)" class="st0 st2 st11">93.024</text>
<path class="st0" d="M441.8,248.6h114v28h-114V248.6"/>
<path class="st10" d="M441.8,248.6h114v1h-114V248.6 M441.8,275.6h114v1h-114V275.6 M441.8,248.6h1v28h-1V248.6 M554.8,248.6h1v28
	h-1V248.6"/>
<text transform="matrix(1 0 0 1 446.811 268.565)" class="st9 st2 st11">94.095</text>
<path class="st0" d="M441.8,286.6h114v28h-114V286.6"/>
<path class="st10" d="M441.8,286.6h114v1h-114V286.6 M441.8,313.6h114v1h-114V313.6 M441.8,286.6h1v28h-1V286.6 M554.8,286.6h1v28
	h-1V286.6"/>
<text transform="matrix(1 0 0 1 446.811 306.565)" class="st9 st2 st11">91.783</text>
<path class="st0" d="M441.8,324.6h68v28h-68V324.6"/>
<path class="st10" d="M441.8,324.6h68v1h-68V324.6 M441.8,351.6h68v1h-68V351.6 M441.8,324.6h1v28h-1V324.6 M508.8,324.6h1v28h-1
	V324.6"/>
<text transform="matrix(1 0 0 1 446.811 344.565)" class="st9 st2 st11">GBP</text>
<path class="st0" d="M514.8,324.6h106v28h-106V324.6"/>
<path class="st10" d="M514.8,324.6h106v1h-106V324.6 M514.8,351.6h106v1h-106V351.6 M514.8,324.6h1v28h-1V324.6 M619.8,324.6h1v28
	h-1V324.6"/>
<text transform="matrix(1 0 0 1 519.811 344.565)" class="st9 st2 st11">10</text>
<path class="st15" d="M407.5,380.6h131c2.2,0,4,1.8,4,4v30c0,2.2-1.8,4-4,4h-131c-2.2,0-4-1.8-4-4v-30
	C403.5,382.4,405.3,380.6,407.5,380.6"/>
<text transform="matrix(1 0 0 1 423.082 406.565)" class="st0 st2 st11">GET PRICES</text>
<text transform="matrix(1 0 0 1 224.811 107.564)" class="st1 st2 st16">Stays Between/Goes Outside</text>
<text transform="matrix(1 0 0 1 424.811 107.564)" class="st4 st2 st16">Ends Between/Outside</text>
<path class="st9" d="M411.9,139.5l-3.5,5.8l-3.5-5.8L411.9,139.5z M597.9,139.5l-3.5,5.8l-3.5-5.8L597.9,139.5z M594.9,182.6
	l-3.5,5.8l-3.5-5.8L594.9,182.6z M502.9,336.5l-3.5,5.8l-3.5-5.8L502.9,336.5z"/>
<path class="st17" d="M673.8,35.9h101.5"/>
<path class="st18" d="M774.8,18.4h143v35h-143V18.4z"/>
<path class="st19" d="M917.3,18.9v34h-142v-34H917.3 M918.3,17.9h-144v36h144V17.9z"/>
<text transform="matrix(1 0 0 1 783.311 40.787)" class="st9 st2 st20">Choose your market</text>
<path class="st17" d="M606.8,141.6h134"/>
<path class="st18" d="M740.3,124.1h162.4v35H740.3V124.1z"/>
<path class="st19" d="M902.2,124.6v34H740.8v-34L902.2,124.6 M903.2,123.6H739.8v36h163.4V123.6z"/>
<text transform="matrix(1 0 0 1 747.811 146.416)" class="st9 st2 st20">Choose your underlying</text>
<path class="st17" d="M661.1,183.6h109"/>
<path class="st18" d="M769.6,166.1h150.9v35H769.6V166.1z"/>
<path class="st19" d="M920,166.6v34H770.1v-34H920 M921,165.6H769.1v36H921L921,165.6z"/>
<text transform="matrix(1 0 0 1 778.111 188.416)" class="st9 st2 st20">Choose your duration</text>
<path class="st17" d="M170.9,307.1H307"/>
<path class="st18" d="M25.5,289.6h144.9v35H25.5V289.6z"/>
<path class="st19" d="M169.9,290.1v34H26v-34H169.9 M170.9,289.1H25v36h145.9L170.9,289.1L170.9,289.1z"/>
<text transform="matrix(1 0 0 1 33.025 311.915)" class="st9 st2 st20">Choose your barriers</text>
<path class="st17" d="M373,364.2v81.9"/>
<path class="st18" d="M324,446.6h142v35H324V446.6z"/>
<path class="st19" d="M465.5,447.1v34h-141v-34H465.5 M466.5,446.1h-143v36h143V446.1z"/>
<text transform="matrix(1 0 0 1 332.762 468.915)" class="st9 st2 st20">Choose your payout</text>
<path class="st17" d="M518.1,77.6h134"/>
<path class="st18" d="M651.6,60.1h164v35h-164V60.1z"/>
<path class="st19" d="M815.1,60.6v34h-163v-34L815.1,60.6 M816.1,59.6h-165v36h165V59.6z"/>
<text transform="matrix(1 0 0 1 661.111 82.416)" class="st9 st2 st20">Choose your trade type</text>
</svg>
